<svg width="1920" height="537" viewBox="0 0 1920 537" fill="none" xmlns="http://www.w3.org/2000/svg">
<path fill-rule="evenodd" clip-rule="evenodd" d="M1695 299.5C1695 157.67 1790.09 38.0508 1920 0.920654V537H1805.48C1737.92 480.042 1695 394.783 1695 299.5Z" fill="#FF7CA5"/>
<path fill-rule="evenodd" clip-rule="evenodd" d="M0 537H79.7462C146.975 482.93 190 399.989 190 307C190 181.061 111.081 73.5532 0 31.2339V537Z" fill="#FCC72A"/>
<path fill-rule="evenodd" clip-rule="evenodd" d="M0 537H304.91C276.373 394.974 150.929 288 0.5 288C0.333252 288 0.166626 288 0 288V537Z" fill="#313034"/>
<path fill-rule="evenodd" clip-rule="evenodd" d="M1920 305.023C1887.35 293.355 1852.16 287 1815.5 287C1664.72 287 1539.04 394.477 1510.89 537H1920V305.023Z" fill="#FF407C"/>
</svg>
