<svg width="26" height="26" viewBox="0 0 26 26" fill="none" xmlns="http://www.w3.org/2000/svg">
<path fill-rule="evenodd" clip-rule="evenodd" d="M7.70916 0.243504C9.07766 0.180504 9.51399 0.166504 13 0.166504C16.486 0.166504 16.9223 0.181671 18.2897 0.243504C19.657 0.305337 20.5903 0.523504 21.407 0.839671C22.2622 1.16284 23.038 1.668 23.6797 2.32134C24.333 2.96184 24.837 3.7365 25.159 4.59284C25.4763 5.4095 25.6933 6.34284 25.7563 7.70784C25.8193 9.07867 25.8333 9.515 25.8333 12.9998C25.8333 16.4858 25.8182 16.9222 25.7563 18.2907C25.6945 19.6557 25.4763 20.589 25.159 21.4057C24.837 22.2621 24.3321 23.0381 23.6797 23.6795C23.038 24.3328 22.2622 24.8368 21.407 25.1588C20.5903 25.4762 19.657 25.6932 18.292 25.7562C16.9223 25.8192 16.486 25.8332 13 25.8332C9.51399 25.8332 9.07766 25.818 7.70916 25.7562C6.34416 25.6943 5.41082 25.4762 4.59416 25.1588C3.73773 24.8368 2.96178 24.332 2.32032 23.6795C1.66743 23.0386 1.16219 22.263 0.839823 21.4068C0.523657 20.5902 0.306656 19.6568 0.243656 18.2918C0.180656 16.921 0.166656 16.4847 0.166656 12.9998C0.166656 9.51384 0.181823 9.0775 0.243656 7.71017C0.30549 6.34284 0.523657 5.4095 0.839823 4.59284C1.16267 3.7366 1.66829 2.96104 2.32149 2.32017C2.96204 1.66742 3.73721 1.16219 4.59299 0.839671C5.40966 0.523504 6.34299 0.306504 7.70799 0.243504H7.70916ZM18.1858 2.5535C16.8325 2.49167 16.4265 2.47884 13 2.47884C9.57349 2.47884 9.16749 2.49167 7.81416 2.5535C6.56232 2.61067 5.88332 2.8195 5.43066 2.99567C4.83216 3.229 4.40399 3.5055 3.95482 3.95467C3.52904 4.3689 3.20137 4.87317 2.99582 5.4305C2.81966 5.88317 2.61082 6.56217 2.55366 7.814C2.49182 9.16734 2.47899 9.57334 2.47899 12.9998C2.47899 16.4263 2.49182 16.8323 2.55366 18.1857C2.61082 19.4375 2.81966 20.1165 2.99582 20.5692C3.20116 21.1257 3.52899 21.6308 3.95482 22.045C4.36899 22.4708 4.87416 22.7987 5.43066 23.004C5.88332 23.1802 6.56232 23.389 7.81416 23.4462C9.16749 23.508 9.57232 23.5208 13 23.5208C16.4277 23.5208 16.8325 23.508 18.1858 23.4462C19.4377 23.389 20.1167 23.1802 20.5693 23.004C21.1678 22.7707 21.596 22.4942 22.0452 22.045C22.471 21.6308 22.7988 21.1257 23.0042 20.5692C23.1803 20.1165 23.3892 19.4375 23.4463 18.1857C23.5082 16.8323 23.521 16.4263 23.521 12.9998C23.521 9.57334 23.5082 9.16734 23.4463 7.814C23.3892 6.56217 23.1803 5.88317 23.0042 5.4305C22.7708 4.832 22.4943 4.40384 22.0452 3.95467C21.6309 3.52892 21.1266 3.20125 20.5693 2.99567C20.1167 2.8195 19.4377 2.61067 18.1858 2.5535ZM11.3608 16.956C12.2763 17.3371 13.2956 17.3885 14.2447 17.1015C15.1939 16.8145 16.0139 16.2069 16.5649 15.3825C17.1158 14.558 17.3634 13.5679 17.2654 12.5811C17.1674 11.5944 16.7298 10.6723 16.0275 9.97234C15.5798 9.52489 15.0384 9.18228 14.4424 8.96918C13.8464 8.75607 13.2105 8.67776 12.5806 8.73989C11.9506 8.80202 11.3423 9.00304 10.7994 9.32849C10.2565 9.65393 9.79252 10.0957 9.44084 10.622C9.08916 11.1483 8.85854 11.746 8.76559 12.3721C8.67264 12.9982 8.71967 13.6372 8.90329 14.2429C9.08691 14.8487 9.40255 15.4062 9.8275 15.8753C10.2524 16.3445 10.7761 16.7136 11.3608 16.956ZM8.33566 8.3355C8.94818 7.72297 9.67536 7.23709 10.4757 6.90559C11.276 6.57409 12.1337 6.40347 13 6.40347C13.8662 6.40347 14.724 6.57409 15.5243 6.90559C16.3246 7.23709 17.0518 7.72297 17.6643 8.3355C18.2769 8.94803 18.7627 9.67521 19.0942 10.4755C19.4257 11.2758 19.5964 12.1336 19.5964 12.9998C19.5964 13.8661 19.4257 14.7238 19.0942 15.5242C18.7627 16.3245 18.2769 17.0516 17.6643 17.6642C16.4273 18.9012 14.7495 19.5962 13 19.5962C11.2505 19.5962 9.57271 18.9012 8.33566 17.6642C7.0986 16.4271 6.40363 14.7493 6.40363 12.9998C6.40363 11.2504 7.0986 9.57256 8.33566 8.3355ZM21.0593 7.38584C21.2111 7.24265 21.3326 7.07046 21.4167 6.87947C21.5007 6.68848 21.5456 6.48257 21.5486 6.27392C21.5517 6.06528 21.5128 5.85814 21.4344 5.66478C21.3559 5.47142 21.2395 5.29577 21.0919 5.14822C20.9444 5.00067 20.7687 4.88422 20.5754 4.80577C20.382 4.72733 20.1749 4.68848 19.9662 4.69152C19.7576 4.69456 19.5517 4.73943 19.3607 4.82348C19.1697 4.90753 18.9975 5.02905 18.8543 5.18084C18.5759 5.47604 18.4234 5.86815 18.4293 6.27392C18.4352 6.6797 18.599 7.0672 18.886 7.35415C19.173 7.64111 19.5605 7.80494 19.9662 7.81085C20.372 7.81677 20.7641 7.66431 21.0593 7.38584Z" fill="white"/>
</svg>
