<svg width="60" height="45" viewBox="0 0 60 45" fill="none" xmlns="http://www.w3.org/2000/svg">
<path fill-rule="evenodd" clip-rule="evenodd" d="M31.2288 43.2442C39.32 39.8354 45 31.831 45 22.5C45 13.169 39.32 5.16459 31.2288 1.75584C33.0356 1.26306 34.9371 1 36.9 1C48.7741 1 58.4 10.6259 58.4 22.5C58.4 34.3741 48.7741 44 36.9 44C34.9371 44 33.0356 43.7369 31.2288 43.2442ZM29.7 43.8233C20.8047 40.8209 14.4 32.4084 14.4 22.5C14.4 12.5916 20.8047 4.17913 29.7 1.17665C30.2183 1.3516 30.7282 1.54493 31.2288 1.75584C22.1064 4.244 15.4 12.5888 15.4 22.5C15.4 32.4112 22.1064 40.756 31.2288 43.2442C30.7282 43.4551 30.2183 43.6484 29.7 43.8233ZM29.7 43.8233C27.4394 44.5864 25.018 45 22.5 45C10.0736 45 0 34.9264 0 22.5C0 10.0736 10.0736 0 22.5 0C25.018 0 27.4394 0.41363 29.7 1.17665C31.9606 0.41363 34.382 0 36.9 0C49.3264 0 59.4 10.0736 59.4 22.5C59.4 34.9264 49.3264 45 36.9 45C34.382 45 31.9606 44.5864 29.7 43.8233Z" fill="#FCC62B"/>
</svg>
