<svg width="25" height="25" viewBox="0 0 25 25" fill="none" xmlns="http://www.w3.org/2000/svg">
<path d="M10.8733 6.02016L7.06738 1.62703C6.62863 1.12078 5.82425 1.12303 5.31463 1.63378L2.18488 4.76916C1.25338 5.70178 0.986752 7.08666 1.52563 8.19703C4.74495 14.8626 10.1207 20.2459 16.7818 23.4745C17.891 24.0134 19.2748 23.7468 20.2063 22.8142L23.3653 19.6495C23.8771 19.1377 23.8783 18.3288 23.3675 17.89L18.9575 14.1044C18.4963 13.7084 17.7796 13.7602 17.3173 14.2237L15.7828 15.7604C15.7042 15.8427 15.6008 15.897 15.4884 15.9149C15.376 15.9328 15.2609 15.9133 15.1606 15.8594C12.6524 14.415 10.5717 12.3317 9.13063 9.82153C9.07666 9.72113 9.05712 9.60579 9.075 9.49321C9.09288 9.38063 9.1472 9.27702 9.22963 9.19828L10.7596 7.66716C11.2231 7.20141 11.2738 6.48141 10.8733 6.01903V6.02016Z" stroke="white" stroke-width="2" stroke-linecap="round" stroke-linejoin="round"/>
</svg>
